# xmcd CD database file
#
# Track frame offsets:
#	150
#	20625
#	42150
#	58425
#	76725
#	97725
#	124875
#	142050
#	160200
#	181912
#	209512
#
# Disc length: 3098 seconds
#
# Revision: 2
# Processed by: cddbd v1.5.2PL0 Copyright (c) Steve Scherf et al.
# Submitted via: CDex 1.70beta2
#
DISCID=970c180b
DTITLE=Mark A Hunter - Songs From The Buffalo Country
DYEAR=2008
DGENRE=Country
TTITLE0=Barramundi
TTITLE1=Rumour
TTITLE2=Down Beside The Sea
TTITLE3=Jealous Woman
TTITLE4=The Mary River
TTITLE5=Marina Girl
TTITLE6=This Land
TTITLE7=Shellene
TTITLE8=Wallaby Leg
TTITLE9=Legend
TTITLE10=Tropical Land
EXTD=YEAR: 2008
EXTT0=
EXTT1=
EXTT2=
EXTT3=
EXTT4=
EXTT5=
EXTT6=
EXTT7=
EXTT8=
EXTT9=
EXTT10=
PLAYORDER=
